# Blender v2.93.4 OBJ File: 'Gravestone.blend'
# www.blender.org
mtllib Gravestone.mtl
o Gravestone_Plane.001
v -0.305983 3.422578 -0.969000
v -0.319131 0.362450 -0.660648
v -0.320621 0.364224 0.615170
v -0.310221 3.695723 -0.478017
v -0.322719 3.685507 0.515854
v -0.319420 3.480909 1.022757
v 0.341615 3.445427 -1.021242
v 0.352635 3.733266 -0.480244
v 0.354443 3.693948 0.503912
v 0.326076 3.462322 1.034862
v 0.340874 0.283452 -0.738041
v 0.337941 0.279531 0.783107
v -0.318269 0.035127 0.954383
v -0.282543 3.580393 1.305585
v -0.289916 3.574671 -1.282051
v -0.285523 0.012061 -0.955165
v -0.292745 3.971227 -0.562568
v -0.309206 3.975138 0.587146
v 0.310942 3.581296 -1.279314
v 0.309195 3.950393 -0.564937
v 0.312438 3.954534 0.591767
v 0.289271 3.578549 1.307889
v 0.277547 0.040485 -0.960827
v 0.316025 0.063217 0.972664
vt 0.290062 0.564876
vt 0.359401 0.079468
vt 0.280700 0.046630
vt 0.125665 0.043175
vt 0.048563 0.084867
vt 0.091024 0.562802
vt 0.898349 0.555842
vt 0.809149 0.555890
vt 0.807282 0.667604
vt 0.904318 0.667881
vt 0.808599 0.848066
vt 0.902557 0.847266
vt 0.807622 0.959549
vt 0.901325 0.959549
vt 0.411608 0.910572
vt 0.499573 0.910572
vt 0.502718 0.608850
vt 0.403694 0.612690
vt 0.906255 0.000000
vt 0.807282 0.004917
vt 0.813024 0.555842
vt 0.902233 0.555842
vt 1.000000 0.559039
vt 1.000000 0.000876
vt 0.906254 0.000000
vt 0.912146 0.554651
vt 0.767232 0.078103
vt 0.682314 0.034212
vt 0.528850 0.042063
vt 0.446457 0.078969
vt 0.491352 0.574895
vt 0.728647 0.571653
vt 0.342373 0.616828
vt 0.403694 0.064374
vt 0.000000 0.060526
vt 0.044418 0.616828
vt 0.112977 0.000000
vt 0.292352 0.001548
vt 0.807282 0.056321
vt 0.695185 0.000000
vt 0.514724 0.001381
vt 0.403694 0.061144
vt 0.462184 0.608850
vt 0.763895 0.608850
vn -1.0000 0.0012 -0.0049
vn 0.0138 0.8808 0.4732
vn 0.0339 0.9994 -0.0033
vn 0.0106 0.8821 -0.4710
vn 0.0470 -0.9988 0.0118
vn -0.0149 -0.0967 0.9952
vn 0.0002 -0.0905 -0.9959
vn 1.0000 -0.0033 0.0051
vn -0.9981 -0.0016 0.0624
vn -0.9968 -0.0063 -0.0794
vn -0.9985 -0.0535 -0.0103
vn -0.9983 0.0481 -0.0325
vn -0.9984 0.0544 -0.0133
vn -0.9954 0.0739 0.0605
vn 0.9882 0.1329 -0.0768
vn 0.9844 0.1761 0.0006
vn 0.9887 0.1143 0.0966
vn 0.9833 -0.1818 -0.0091
vn 0.9922 -0.0052 0.1248
vn 0.9821 -0.0218 -0.1871
usemtl Material.002
s off
f 3/1/1 6/2/1 5/3/1 4/4/1 1/5/1 2/6/1
f 14/7/2 22/8/2 21/9/2 18/10/2
f 18/10/3 21/9/3 20/11/3 17/12/3
f 17/12/4 20/11/4 19/13/4 15/14/4
f 16/15/5 23/16/5 24/17/5 13/18/5
f 13/19/6 24/20/6 22/21/6 14/22/6
f 16/23/7 15/24/7 19/25/7 23/26/7
f 7/27/8 8/28/8 9/29/8 10/30/8 12/31/8 11/32/8
f 3/1/9 13/33/9 14/34/9 6/2/9
f 1/5/10 15/35/10 16/36/10 2/6/10
f 2/6/11 16/36/11 13/33/11 3/1/11
f 4/4/12 17/37/12 15/35/12 1/5/12
f 5/3/13 18/38/13 17/37/13 4/4/13
f 6/2/14 14/34/14 18/38/14 5/3/14
f 7/27/15 19/39/15 20/40/15 8/28/15
f 8/28/16 20/40/16 21/41/16 9/29/16
f 9/29/17 21/41/17 22/42/17 10/30/17
f 12/31/18 24/43/18 23/44/18 11/32/18
f 10/30/19 22/42/19 24/43/19 12/31/19
f 11/32/20 23/44/20 19/39/20 7/27/20
